<svg width="215" height="49" viewBox="0 0 215 49" fill="none" xmlns="http://www.w3.org/2000/svg">
<path d="M122.774 37.3486V45.5672H100.489V9.42285H109.639V37.3486H122.774Z" fill="#5C0A98"/>
<path d="M151.49 35.758H133.101C134.188 37.879 136.543 38.9395 139.714 38.9395C141.888 38.9395 143.881 38.4976 145.874 37.172L149.86 41.3255C147.686 44.0651 143.881 46.0976 138.717 46.0976C131.108 46.0976 124.314 41.1488 124.314 32.3999C124.314 23.4743 131.198 18.6138 138.264 18.6138C145.059 18.6138 153.393 23.2091 151.49 35.758ZM132.738 29.572H143.519C142.884 27.0975 140.529 25.9487 138.264 25.9487C136 25.9487 133.644 27.0092 132.738 29.572Z" fill="#5C0A98"/>
<path d="M153.755 32.3115C153.755 23.0324 160.55 18.5254 166.619 18.5254C171.33 18.5254 173.957 21.0882 174.138 21.5301H174.319V19.0556H183.378V45.479H174.319V43.0046H174.138C173.957 43.4465 171.33 46.0093 166.619 46.0093C160.55 46.0976 153.755 41.5906 153.755 32.3115ZM174.41 32.3115C174.41 28.5115 171.692 26.3905 168.431 26.3905C165.26 26.3905 162.542 28.5999 162.542 32.3115C162.542 36.0232 165.351 38.2325 168.431 38.2325C171.692 38.3208 174.41 36.1115 174.41 32.3115Z" fill="#5C0A98"/>
<path d="M214.631 30.0138V45.5674H205.572V31.5162C205.572 28.7766 204.213 26.3905 201.133 26.3905C198.144 26.3905 196.785 28.7766 196.785 31.5162V45.5674H187.726V19.0556H196.785V22.1487C198.325 20.0277 200.862 18.5254 204.485 18.5254C210.102 18.6138 214.631 21.8835 214.631 30.0138Z" fill="#5C0A98"/>
<path d="M62.3799 33.1751L52.4323 43.2456C48.2874 46.8422 42.7955 49.0001 36.8891 49.0001C33.9877 49.0001 31.2936 48.4863 28.703 47.5615C26.527 46.7394 24.4546 45.7118 22.5894 44.2732L4.14484 25.9819C1.34707 23.2074 0 19.6108 0 16.0142C0 12.4176 1.34707 8.82105 4.14484 6.04654C9.74039 0.497508 18.7554 0.497508 24.351 6.04654L25.698 7.38242L37.5108 20.3302L47.3549 10.3625L62.2763 24.8516C64.6596 27.0095 64.6596 30.8117 62.3799 33.1751Z" fill="url(#paint0_linear)"/>
<path d="M61.074 34.9854L52.2519 43.6806C48.308 46.9541 43.2223 49 37.6177 49C34.9192 49 32.3245 48.4885 29.9373 47.6701C26.8237 40.1002 28.0691 31.2004 33.6737 24.5511C34.0889 24.0397 34.6078 23.5282 35.1268 23.0167L58.3755 0L61.074 2.65971C70.1036 11.5595 70.1036 25.9833 61.074 34.9854Z" fill="#2E0D6D"/>
<path d="M64.564 31.1537L54.4875 41.2632L52.1226 43.6358C48.2153 47.04 43.0742 49 37.5219 49C36.288 49 35.157 48.8968 33.9231 48.6905C33.9231 44.6674 35.6711 40.541 38.8585 37.3432L48.2153 27.9558L57.6749 18.4653C57.7778 18.3621 57.8806 18.2589 57.9834 18.1558C62.6104 12.5853 62.9188 4.84842 58.6003 0L64.564 5.98316C71.4531 12.9979 71.4531 24.2421 64.564 31.1537Z" fill="url(#paint1_linear)"/>
<defs>
<linearGradient id="paint0_linear" x1="5.42747" y1="10.3784" x2="46.0711" y2="34.106" gradientUnits="userSpaceOnUse">
<stop stop-color="#5C0A98"/>
<stop offset="0.614" stop-color="#2E0D6D"/>
</linearGradient>
<linearGradient id="paint1_linear" x1="34.014" y1="24.6007" x2="69.771" y2="24.6007" gradientUnits="userSpaceOnUse">
<stop offset="0.0978775" stop-color="#5C0A98"/>
<stop offset="1" stop-color="#09A4DB"/>
</linearGradient>
</defs>
</svg>
