<svg width="29" height="20" viewBox="0 0 29 20" fill="none" xmlns="http://www.w3.org/2000/svg">
<path d="M25.8321 13.5699L21.7127 17.6618C19.9963 19.1232 17.722 20 15.2761 20C14.0746 20 12.959 19.7912 11.8862 19.4155C10.9851 19.0814 10.1269 18.6639 9.35448 18.0793L1.71642 10.6472C0.557836 9.51984 0 8.05846 0 6.59708C0 5.13571 0.557836 3.67433 1.71642 2.54698C4.03358 0.292283 7.76679 0.292283 10.084 2.54698L10.6418 3.08978L15.5336 8.35074L19.6101 4.30063L25.7892 10.1879C26.7761 11.0647 26.7761 12.6096 25.8321 13.5699Z" fill="url(#paint0_linear)"/>
<path d="M25.1026 14.2797L21.4552 17.8288C19.8246 19.1649 17.722 20 15.4048 20C14.2891 20 13.2164 19.7912 12.2294 19.4572C10.9421 16.3674 11.457 12.7349 13.7742 10.0209C13.9458 9.81211 14.1604 9.60334 14.3749 9.39457L23.9869 0L25.1026 1.08559C28.8358 4.71816 28.8358 10.6054 25.1026 14.2797Z" fill="#2E0D6D"/>
<path d="M26.6474 12.7349L22.4422 16.8267L21.4553 17.7871C19.8247 19.1649 17.6791 19.9582 15.362 19.9582C14.847 19.9582 14.375 19.9165 13.8601 19.833C13.8601 18.2046 14.5896 16.5344 15.9198 15.2401L19.8247 11.4405L23.7724 7.59916C23.8153 7.55741 23.8582 7.51566 23.9012 7.4739C25.8321 5.2192 25.9609 2.08768 24.1586 0.125259L26.6474 2.54697C29.5224 5.38622 29.5224 9.93737 26.6474 12.7349Z" fill="url(#paint1_linear)"/>
<defs>
<linearGradient id="paint0_linear" x1="2.24756" y1="4.30711" x2="18.9146" y2="14.2237" gradientUnits="userSpaceOnUse">
<stop stop-color="#5C0A98"/>
<stop offset="0.614" stop-color="#2E0D6D"/>
</linearGradient>
<linearGradient id="paint1_linear" x1="13.898" y1="10.0825" x2="28.8205" y2="10.0825" gradientUnits="userSpaceOnUse">
<stop offset="0.0978775" stop-color="#5C0A98"/>
<stop offset="1" stop-color="#09A4DB"/>
</linearGradient>
</defs>
</svg>
